<svg version="1.1" id="Layer_1" xmlns="http://www.w3.org/2000/svg" xmlns:xlink="http://www.w3.org/1999/xlink" x="0px" y="0px"
	 width="100%" viewBox="0 0 1000 1000" enable-background="new 0 0 1000 1000" xml:space="preserve">
<path fill="#CDFDFF" opacity="1.000000" stroke="none" 
	d="
M1.000000,343.000000 
	C1.000000,228.666687 1.000000,114.833359 1.000000,1.000020 
	C167.666641,1.000000 334.333282,1.000000 500.999908,1.000000 
	C667.666565,1.000000 834.333191,1.000000 1000.999878,1.000000 
	C1001.000000,167.666595 1001.000000,334.333191 1001.000000,500.999786 
	C1001.000000,667.666443 1001.000000,834.333069 1001.000000,1000.999756 
	C667.666809,1000.999878 334.333588,1000.999878 1.000199,1000.999939 
	C1.000000,781.833313 1.000000,562.666687 1.000000,343.000000 
M935.031067,474.500000 
	C935.030823,387.167816 935.146118,299.835297 934.886108,212.503891 
	C934.853027,201.422012 933.923584,190.114273 931.578552,179.308472 
	C922.735474,138.559326 898.764771,108.087250 864.090149,86.217216 
	C844.284607,73.725433 821.834473,67.118744 798.288452,67.091309 
	C601.124146,66.861526 403.959412,66.853233 206.794998,67.019547 
	C180.334015,67.041870 155.899521,74.545563 133.743439,89.572639 
	C90.103981,119.170517 67.376045,160.091995 67.314774,212.786865 
	C67.091316,404.951294 67.238052,597.116150 67.213249,789.280823 
	C67.209969,814.744873 72.461708,839.028259 85.424706,860.970825 
	C114.026245,909.384827 157.150223,933.715576 213.104019,934.725220 
	C252.588272,935.437683 292.093201,935.082031 331.588837,935.070374 
	C483.916046,935.025513 636.243286,934.927124 788.570496,934.848755 
	C788.903809,934.848572 789.237244,934.853882 789.570496,934.848022 
	C815.116943,934.398010 839.588928,929.211121 861.682678,916.102051 
	C909.992981,887.437439 934.924683,844.926941 934.994263,788.496704 
	C935.122864,684.164612 935.031067,579.832275 935.031067,474.500000 
z"/>
<path fill="#020607" opacity="1.000000" stroke="none" 
	d="
M935.031067,475.000000 
	C935.031067,579.832275 935.122864,684.164612 934.994263,788.496704 
	C934.924683,844.926941 909.992981,887.437439 861.682678,916.102051 
	C839.588928,929.211121 815.116943,934.398010 789.570496,934.848022 
	C789.237244,934.853882 788.903809,934.848572 788.570496,934.848755 
	C636.243286,934.927124 483.916046,935.025513 331.588837,935.070374 
	C292.093201,935.082031 252.588272,935.437683 213.104019,934.725220 
	C157.150223,933.715576 114.026245,909.384827 85.424706,860.970825 
	C72.461708,839.028259 67.209969,814.744873 67.213249,789.280823 
	C67.238052,597.116150 67.091316,404.951294 67.314774,212.786865 
	C67.376045,160.091995 90.103981,119.170517 133.743439,89.572639 
	C155.899521,74.545563 180.334015,67.041870 206.794998,67.019547 
	C403.959412,66.853233 601.124146,66.861526 798.288452,67.091309 
	C821.834473,67.118744 844.284607,73.725433 864.090149,86.217216 
	C898.764771,108.087250 922.735474,138.559326 931.578552,179.308472 
	C933.923584,190.114273 934.853027,201.422012 934.886108,212.503891 
	C935.146118,299.835297 935.030823,387.167816 935.031067,475.000000 
M544.917114,340.414246 
	C505.238495,359.347351 463.510071,352.825470 432.598999,322.053192 
	C364.921631,254.679626 297.500031,187.049088 230.005280,119.492233 
	C221.553329,111.032524 215.124207,101.158379 210.654205,90.069489 
	C208.741745,85.325203 207.198380,80.432137 205.428284,75.440254 
	C184.636978,76.419075 165.047501,81.072464 146.887100,91.371696 
	C152.903641,107.382736 162.376816,120.494270 174.052032,132.146408 
	C226.309128,184.300186 278.530426,236.489944 330.878082,288.552673 
	C334.080109,291.737274 335.430023,294.831055 335.427429,299.390533 
	C335.310547,506.048553 335.325562,712.706604 335.325073,919.364685 
	C335.325073,921.494141 335.325073,923.623596 335.325073,926.095215 
	C446.024078,926.095215 556.257812,926.095215 667.010986,926.095215 
	C667.010986,923.932739 667.011047,921.803711 667.011047,919.674683 
	C667.010742,712.683289 667.019348,505.691925 666.938904,298.700562 
	C666.937439,294.945435 667.909668,292.272064 670.631531,289.561737 
	C723.184326,237.231979 775.628052,184.792740 828.099976,132.381775 
	C839.877075,120.618355 849.558411,107.473335 855.290466,91.804466 
	C854.928772,91.332390 854.784546,90.966248 854.519958,90.824234 
	C837.240845,81.549294 818.777466,76.492599 799.207520,75.647072 
	C798.107056,75.599525 796.237671,77.405594 795.873047,78.677666 
	C790.886292,96.074142 781.477356,110.624886 768.703918,123.361145 
	C702.968201,188.905792 637.471741,254.690811 571.585388,320.083191 
	C563.885559,327.725342 554.297668,333.465210 544.917114,340.414246 
M927.437927,213.499313 
	C927.263123,162.836594 905.745911,123.815750 863.311218,95.069756 
	C854.757080,119.042213 837.463867,135.301926 820.687134,152.030609 
	C773.479797,199.102570 726.418457,246.320984 679.217468,293.399292 
	C676.767578,295.842865 675.813477,298.260590 675.814697,301.689209 
	C675.888489,508.186462 675.880920,714.683716 675.880920,921.181030 
	C675.880920,922.959839 675.880859,924.738647 675.880859,926.981812 
	C677.547852,926.981812 678.681702,926.981750 679.815613,926.981750 
	C716.815125,926.981140 753.816284,927.186157 790.813416,926.889709 
	C808.214172,926.750366 825.276733,923.969177 841.535461,917.291199 
	C883.273438,900.148071 910.068176,869.625732 922.755737,826.530518 
	C927.131592,811.667114 927.468079,796.352905 927.464905,780.991760 
	C927.425659,592.160950 927.439453,403.330078 927.437927,213.499313 
M74.941788,251.500000 
	C74.941795,429.475159 74.940903,607.450317 74.947792,785.425476 
	C74.947937,789.257690 74.941299,793.093872 75.101059,796.921387 
	C75.998581,818.424866 81.375107,838.822998 92.258949,857.337280 
	C119.373177,903.460754 160.334625,926.231323 213.523163,926.897156 
	C249.179199,927.343628 284.845367,926.982117 320.507019,926.982117 
	C322.415588,926.982117 324.324158,926.982117 326.550018,926.982117 
	C326.550018,924.168640 326.550018,922.181641 326.550018,920.194641 
	C326.550049,714.390320 326.537506,508.585968 326.639038,302.781647 
	C326.641113,298.593292 325.426178,295.694061 322.477753,292.754028 
	C271.028839,241.451599 219.680084,190.048645 168.321396,138.655731 
	C158.979065,129.307159 150.578827,119.233429 144.616684,107.321518 
	C142.713043,103.518196 140.807556,99.715797 138.864380,95.836029 
	C137.903885,96.299339 137.295654,96.559151 136.720535,96.878571 
	C135.993515,97.282356 135.264267,97.693298 134.586014,98.172050 
	C100.445770,122.270393 80.061607,154.869781 75.970856,196.561691 
	C74.220284,214.403030 75.201698,232.512405 74.941788,251.500000 
M269.500122,74.573997 
	C250.879410,74.573997 232.258698,74.573997 213.003601,74.573997 
	C213.616806,76.838638 213.990540,78.424423 214.474899,79.975677 
	C218.934097,94.256950 226.802673,106.396996 237.358078,116.942429 
	C303.840485,183.362106 370.278107,249.826584 436.744690,316.262115 
	C438.981903,318.498322 441.289337,320.678436 443.699768,322.724854 
	C458.507080,335.296082 475.688446,342.547852 494.987183,343.762024 
	C522.644531,345.502075 546.129639,335.811890 565.699951,316.230774 
	C631.661194,250.233032 697.709534,184.322235 763.623840,118.277687 
	C768.656921,113.234718 773.302185,107.688316 777.416016,101.872505 
	C783.083557,93.860092 787.016846,84.925972 789.249878,74.573692 
	C615.985107,74.573692 443.242615,74.573692 269.500122,74.573997 
z"/>
<path fill="#38B5FE" opacity="1.000000" stroke="none" 
	d="
M545.251099,340.250610 
	C554.297668,333.465210 563.885559,327.725342 571.585388,320.083191 
	C637.471741,254.690811 702.968201,188.905792 768.703918,123.361145 
	C781.477356,110.624886 790.886292,96.074142 795.873047,78.677666 
	C796.237671,77.405594 798.107056,75.599525 799.207520,75.647072 
	C818.777466,76.492599 837.240845,81.549294 854.519958,90.824234 
	C854.784546,90.966248 854.928772,91.332390 855.290466,91.804466 
	C849.558411,107.473335 839.877075,120.618355 828.099976,132.381775 
	C775.628052,184.792740 723.184326,237.231979 670.631531,289.561737 
	C667.909668,292.272064 666.937439,294.945435 666.938904,298.700562 
	C667.019348,505.691925 667.010742,712.683289 667.011047,919.674683 
	C667.011047,921.803711 667.010986,923.932739 667.010986,926.095215 
	C556.257812,926.095215 446.024078,926.095215 335.325073,926.095215 
	C335.325073,923.623596 335.325073,921.494141 335.325073,919.364685 
	C335.325562,712.706604 335.310547,506.048553 335.427429,299.390533 
	C335.430023,294.831055 334.080109,291.737274 330.878082,288.552673 
	C278.530426,236.489944 226.309128,184.300186 174.052032,132.146408 
	C162.376816,120.494270 152.903641,107.382736 146.887100,91.371696 
	C165.047501,81.072464 184.636978,76.419075 205.428284,75.440254 
	C207.198380,80.432137 208.741745,85.325203 210.654205,90.069489 
	C215.124207,101.158379 221.553329,111.032524 230.005280,119.492233 
	C297.500031,187.049088 364.921631,254.679626 432.598999,322.053192 
	C463.510071,352.825470 505.238495,359.347351 545.251099,340.250610 
M394.545837,780.358276 
	C401.687561,776.880676 404.814667,771.408813 403.389923,764.882751 
	C402.109619,759.018372 396.953674,754.542542 391.093933,754.208862 
	C385.165070,753.871277 379.366730,758.115601 377.617889,764.073120 
	C375.822266,770.190125 378.526154,775.867676 385.039215,779.901917 
	C385.662750,780.288208 385.946777,781.222534 385.613068,781.787109 
	C379.912506,782.966492 374.188599,784.047974 368.529510,785.401001 
	C367.276550,785.700562 365.582245,786.746155 365.242249,787.814575 
	C363.913147,791.991211 363.045654,796.314697 361.883545,801.089294 
	C365.309753,800.748474 368.041443,800.476746 371.350983,800.147461 
	C370.971069,802.210388 370.724182,803.789917 370.385803,805.349731 
	C367.740906,817.541321 364.888916,829.692322 362.511414,841.935547 
	C361.510315,847.091003 362.998505,851.992126 367.496979,855.226868 
	C371.959534,858.435730 376.838928,857.644531 381.171509,855.061707 
	C389.637817,850.014648 395.066742,842.080566 400.862640,833.986816 
	C396.577148,831.194092 392.846222,828.762695 389.061310,826.296204 
	C392.503296,811.189270 395.882660,796.357422 399.243896,781.604980 
	C398.331451,781.266296 398.038116,781.077942 397.733948,781.058533 
	C396.571167,780.984131 395.404907,780.964050 394.545837,780.358276 
M622.719421,778.811279 
	C624.765686,782.586182 626.749695,786.396973 628.895630,790.114380 
	C629.554260,791.255310 630.741699,793.071533 631.542114,792.998108 
	C639.369934,792.280518 647.167114,791.228088 654.979919,790.270142 
	C651.844421,771.026794 642.191711,757.512512 624.372070,751.975891 
	C596.002869,743.161377 572.846130,752.313232 554.823059,775.488403 
	C537.395874,748.722290 510.354187,741.240112 482.367828,755.122314 
	C463.223572,764.618591 449.936890,789.149353 451.668427,812.769348 
	C452.232025,820.457397 454.049194,828.053467 455.307251,835.778992 
	C448.057770,835.778992 440.221619,835.778992 432.095398,835.778992 
	C438.645752,807.407715 445.100128,779.452332 451.644775,751.105835 
	C442.765381,751.105835 434.674957,751.105835 426.297943,751.105835 
	C417.979706,787.170349 409.705780,823.042786 401.270874,859.613098 
	C404.039856,859.613098 405.841431,859.613098 407.642975,859.613098 
	C427.135254,859.613098 446.627838,859.552917 466.119476,859.665955 
	C469.832855,859.687439 473.134583,859.724060 473.355042,855.128784 
	C504.060577,867.681396 529.359741,861.028931 549.172791,835.200317 
	C552.240234,839.472473 554.711060,843.920349 558.113708,847.476685 
	C572.140869,862.137634 589.517395,863.264038 608.032898,859.101562 
	C609.310120,858.814453 610.594055,858.166382 611.847656,858.229187 
	C619.203003,858.597839 626.546692,859.249268 633.904297,859.468445 
	C634.967285,859.500122 636.798401,857.887390 637.070007,856.748413 
	C641.775024,837.024048 646.291321,817.254761 650.830627,797.574158 
	C650.263245,797.268372 649.978088,796.980591 649.691956,796.979675 
	C630.868347,796.920044 612.044556,796.853882 593.221375,796.927307 
	C592.220947,796.931213 590.538879,797.963074 590.335876,798.798645 
	C588.695251,805.550293 587.333069,812.369507 585.716858,819.962769 
	C597.769043,819.962769 609.254028,819.962769 621.263977,819.962769 
	C617.646362,829.953247 611.443115,835.743958 601.790161,837.686035 
	C584.554199,841.153625 573.489441,833.939636 571.413635,817.084534 
	C569.747253,803.553345 573.481079,791.303772 582.913696,781.177673 
	C593.123840,770.216858 614.316772,768.791138 622.719421,778.811279 
z"/>
<path fill="#0097B2" opacity="1.000000" stroke="none" 
	d="
M927.438721,213.999283 
	C927.439453,403.330078 927.425659,592.160950 927.464905,780.991760 
	C927.468079,796.352905 927.131592,811.667114 922.755737,826.530518 
	C910.068176,869.625732 883.273438,900.148071 841.535461,917.291199 
	C825.276733,923.969177 808.214172,926.750366 790.813416,926.889709 
	C753.816284,927.186157 716.815125,926.981140 679.815613,926.981750 
	C678.681702,926.981750 677.547852,926.981812 675.880859,926.981812 
	C675.880859,924.738647 675.880920,922.959839 675.880920,921.181030 
	C675.880920,714.683716 675.888489,508.186462 675.814697,301.689209 
	C675.813477,298.260590 676.767578,295.842865 679.217468,293.399292 
	C726.418457,246.320984 773.479797,199.102570 820.687134,152.030609 
	C837.463867,135.301926 854.757080,119.042213 863.311218,95.069756 
	C905.745911,123.815750 927.263123,162.836594 927.438721,213.999283 
z"/>
<path fill="#0097B2" opacity="1.000000" stroke="none" 
	d="
M74.941772,251.000000 
	C75.201698,232.512405 74.220284,214.403030 75.970856,196.561691 
	C80.061607,154.869781 100.445770,122.270393 134.586014,98.172050 
	C135.264267,97.693298 135.993515,97.282356 136.720535,96.878571 
	C137.295654,96.559151 137.903885,96.299339 138.864380,95.836029 
	C140.807556,99.715797 142.713043,103.518196 144.616684,107.321518 
	C150.578827,119.233429 158.979065,129.307159 168.321396,138.655731 
	C219.680084,190.048645 271.028839,241.451599 322.477753,292.754028 
	C325.426178,295.694061 326.641113,298.593292 326.639038,302.781647 
	C326.537506,508.585968 326.550049,714.390320 326.550018,920.194641 
	C326.550018,922.181641 326.550018,924.168640 326.550018,926.982117 
	C324.324158,926.982117 322.415588,926.982117 320.507019,926.982117 
	C284.845367,926.982117 249.179199,927.343628 213.523163,926.897156 
	C160.334625,926.231323 119.373177,903.460754 92.258949,857.337280 
	C81.375107,838.822998 75.998581,818.424866 75.101059,796.921387 
	C74.941299,793.093872 74.947937,789.257690 74.947792,785.425476 
	C74.940903,607.450317 74.941795,429.475159 74.941772,251.000000 
z"/>
<path fill="#0CBFDE" opacity="1.000000" stroke="none" 
	d="
M270.000122,74.573845 
	C443.242615,74.573692 615.985107,74.573692 789.249878,74.573692 
	C787.016846,84.925972 783.083557,93.860092 777.416016,101.872505 
	C773.302185,107.688316 768.656921,113.234718 763.623840,118.277687 
	C697.709534,184.322235 631.661194,250.233032 565.699951,316.230774 
	C546.129639,335.811890 522.644531,345.502075 494.987183,343.762024 
	C475.688446,342.547852 458.507080,335.296082 443.699768,322.724854 
	C441.289337,320.678436 438.981903,318.498322 436.744690,316.262115 
	C370.278107,249.826584 303.840485,183.362106 237.358078,116.942429 
	C226.802673,106.396996 218.934097,94.256950 214.474899,79.975677 
	C213.990540,78.424423 213.616806,76.838638 213.003601,74.573997 
	C232.258698,74.573997 250.879410,74.573997 270.000122,74.573845 
M599.045166,266.545288 
	C630.429565,235.298462 661.813904,204.051620 693.167664,172.835312 
	C590.048340,55.633656 406.655975,60.370029 309.870850,172.275375 
	C345.493683,207.725769 381.109863,243.169525 416.869232,278.755798 
	C438.255676,251.876022 466.719971,237.764679 501.386078,237.801971 
	C536.015503,237.839218 564.420227,252.081863 586.281677,279.703552 
	C590.670227,275.173706 594.607666,271.109436 599.045166,266.545288 
z"/>
<path fill="#1D3C3C" opacity="1.000000" stroke="none" 
	d="
M622.470703,778.543152 
	C614.316772,768.791138 593.123840,770.216858 582.913696,781.177673 
	C573.481079,791.303772 569.747253,803.553345 571.413635,817.084534 
	C573.489441,833.939636 584.554199,841.153625 601.790161,837.686035 
	C611.443115,835.743958 617.646362,829.953247 621.263977,819.962769 
	C609.254028,819.962769 597.769043,819.962769 585.716858,819.962769 
	C587.333069,812.369507 588.695251,805.550293 590.335876,798.798645 
	C590.538879,797.963074 592.220947,796.931213 593.221375,796.927307 
	C612.044556,796.853882 630.868347,796.920044 649.691956,796.979675 
	C649.978088,796.980591 650.263245,797.268372 650.830627,797.574158 
	C646.291321,817.254761 641.775024,837.024048 637.070007,856.748413 
	C636.798401,857.887390 634.967285,859.500122 633.904297,859.468445 
	C626.546692,859.249268 619.203003,858.597839 611.847656,858.229187 
	C610.594055,858.166382 609.310120,858.814453 608.032898,859.101562 
	C589.517395,863.264038 572.140869,862.137634 558.113708,847.476685 
	C554.711060,843.920349 552.240234,839.472473 549.172791,835.200317 
	C529.359741,861.028931 504.060577,867.681396 473.355042,855.128784 
	C473.134583,859.724060 469.832855,859.687439 466.119476,859.665955 
	C446.627838,859.552917 427.135254,859.613098 407.642975,859.613098 
	C405.841431,859.613098 404.039856,859.613098 401.270874,859.613098 
	C409.705780,823.042786 417.979706,787.170349 426.297943,751.105835 
	C434.674957,751.105835 442.765381,751.105835 451.644775,751.105835 
	C445.100128,779.452332 438.645752,807.407715 432.095398,835.778992 
	C440.221619,835.778992 448.057770,835.778992 455.307251,835.778992 
	C454.049194,828.053467 452.232025,820.457397 451.668427,812.769348 
	C449.936890,789.149353 463.223572,764.618591 482.367828,755.122314 
	C510.354187,741.240112 537.395874,748.722290 554.823059,775.488403 
	C572.846130,752.313232 596.002869,743.161377 624.372070,751.975891 
	C642.191711,757.512512 651.844421,771.026794 654.979919,790.270142 
	C647.167114,791.228088 639.369934,792.280518 631.542114,792.998108 
	C630.741699,793.071533 629.554260,791.255310 628.895630,790.114380 
	C626.749695,786.396973 624.765686,782.586182 622.470703,778.543152 
M469.614685,843.207764 
	C484.486816,855.832397 501.087097,857.973450 519.027344,851.115540 
	C537.018066,844.238464 546.743591,830.242188 551.688660,810.920410 
	C552.383057,828.166077 556.708557,842.300842 571.919739,849.853699 
	C589.771240,858.717529 606.785828,856.083984 622.575500,843.564087 
	C622.022034,846.651794 621.513184,849.490662 621.006836,852.315308 
	C630.786499,854.149414 631.074707,853.976990 633.072388,845.491272 
	C635.278442,836.120422 637.538696,826.761780 639.664429,817.372681 
	C640.674377,812.912231 641.426575,808.393433 642.450134,803.101746 
	C627.127014,803.101746 612.680481,803.058167 598.235840,803.208801 
	C597.356628,803.217957 596.094604,804.615845 595.705994,805.633240 
	C594.897827,807.749146 594.556396,810.043274 593.834717,813.048706 
	C600.231567,813.048706 606.009216,813.048706 611.786865,813.048706 
	C617.671814,813.048706 623.556702,813.048706 629.551453,813.048706 
	C626.660706,831.148499 617.327332,841.581726 600.532776,844.494446 
	C584.954102,847.196350 570.989319,841.303955 566.568848,824.923950 
	C562.469482,809.734131 564.726501,795.158203 573.689941,782.044067 
	C582.431946,769.254028 595.067505,764.855530 610.114929,765.908325 
	C622.039062,766.742676 629.093567,773.566895 633.659912,783.965515 
	C634.116882,785.006348 636.279114,785.876465 637.618164,785.833618 
	C640.561584,785.739441 643.484741,785.009827 646.637512,784.504028 
	C645.563904,776.943726 641.679810,771.003357 636.257751,766.226807 
	C625.772461,756.989746 613.234253,754.258118 599.618469,755.962952 
	C579.769897,758.448120 565.242310,768.421387 556.912903,786.851807 
	C555.496277,789.986328 554.397705,793.264648 553.152161,796.476501 
	C552.219177,794.776917 552.161743,793.305908 552.004639,791.845581 
	C551.053284,783.005005 547.915833,775.022095 541.921631,768.428284 
	C529.979065,755.291016 514.502197,753.350830 498.368652,756.539673 
	C460.056030,764.112183 449.009460,811.549866 465.218323,837.310547 
	C466.437592,839.248352 467.755707,841.123962 468.087250,842.963989 
	C453.519867,842.963989 438.952515,842.963989 423.662170,842.963989 
	C430.350616,813.965759 436.814545,785.940918 443.274811,757.932007 
	C433.850281,755.644043 431.637512,756.586426 430.197174,762.881042 
	C424.314514,788.589233 418.389984,814.287781 412.511230,839.996887 
	C411.573120,844.099365 410.790009,848.237183 409.803619,852.993225 
	C412.437195,852.993225 414.234497,852.993225 416.031799,852.993225 
	C429.520538,852.993286 443.009277,852.993225 456.498016,852.993225 
	C466.625793,852.993225 466.625793,852.993286 469.614685,843.207764 
z"/>
<path fill="#1D3C3D" opacity="1.000000" stroke="none" 
	d="
M394.239929,780.923645 
	C395.404907,780.964050 396.571167,780.984131 397.733948,781.058533 
	C398.038116,781.077942 398.331451,781.266296 399.243896,781.604980 
	C395.882660,796.357422 392.503296,811.189270 389.061310,826.296204 
	C392.846222,828.762695 396.577148,831.194092 400.862640,833.986816 
	C395.066742,842.080566 389.637817,850.014648 381.171509,855.061707 
	C376.838928,857.644531 371.959534,858.435730 367.496979,855.226868 
	C362.998505,851.992126 361.510315,847.091003 362.511414,841.935547 
	C364.888916,829.692322 367.740906,817.541321 370.385803,805.349731 
	C370.724182,803.789917 370.971069,802.210388 371.350983,800.147461 
	C368.041443,800.476746 365.309753,800.748474 361.883545,801.089294 
	C363.045654,796.314697 363.913147,791.991211 365.242249,787.814575 
	C365.582245,786.746155 367.276550,785.700562 368.529510,785.401001 
	C374.188599,784.047974 379.912506,782.966492 386.441345,781.763733 
	C389.593079,781.468140 391.916504,781.195862 394.239929,780.923645 
M379.184937,848.868042 
	C383.525482,844.930298 388.463348,841.475708 390.096222,835.282715 
	C386.937805,838.051514 383.779419,840.820312 380.621033,843.589172 
	C379.975800,843.175293 379.330566,842.761475 378.685333,842.347656 
	C382.764618,824.428528 386.843933,806.509338 391.214294,787.311646 
	C383.915985,788.831848 377.659576,790.135010 370.069244,791.716064 
	C379.545685,794.831665 379.651215,795.036316 377.536407,803.826355 
	C377.497620,803.987549 377.412720,804.137817 377.375732,804.299194 
	C374.668365,816.106873 371.742065,827.871704 369.415619,839.754028 
	C368.838745,842.700623 369.470734,846.478516 371.004547,848.981018 
	C371.720581,850.149231 375.911591,849.187683 379.184937,848.868042 
z"/>
<path fill="#1D3D3F" opacity="1.000000" stroke="none" 
	d="
M394.392883,780.640991 
	C391.916504,781.195862 389.593079,781.468140 386.829041,781.821411 
	C385.946777,781.222534 385.662750,780.288208 385.039215,779.901917 
	C378.526154,775.867676 375.822266,770.190125 377.617889,764.073120 
	C379.366730,758.115601 385.165070,753.871277 391.093933,754.208862 
	C396.953674,754.542542 402.109619,759.018372 403.389923,764.882751 
	C404.814667,771.408813 401.687561,776.880676 394.392883,780.640991 
M394.208191,762.093689 
	C390.964691,760.393311 387.425507,759.962219 385.472931,763.354980 
	C384.294800,765.402100 383.927338,769.155029 385.069275,770.948486 
	C386.205383,772.732788 389.745911,773.938354 392.124268,773.779785 
	C396.966553,773.456970 398.213348,767.657288 394.208191,762.093689 
z"/>
<path fill="#040808" opacity="1.000000" stroke="none" 
	d="
M598.795166,266.795227 
	C594.607666,271.109436 590.670227,275.173706 586.281677,279.703552 
	C564.420227,252.081863 536.015503,237.839218 501.386078,237.801971 
	C466.719971,237.764679 438.255676,251.876022 416.869232,278.755798 
	C381.109863,243.169525 345.493683,207.725769 309.870850,172.275375 
	C406.655975,60.370029 590.048340,55.633656 693.167664,172.835312 
	C661.813904,204.051620 630.429565,235.298462 598.795166,266.795227 
M562.261230,249.215775 
	C570.530518,255.852615 578.799744,262.489441 586.817932,268.924774 
	C618.710022,237.043686 651.198059,204.566818 683.692627,172.083435 
	C585.468689,65.756653 414.848938,67.387222 318.725006,172.120178 
	C351.221069,204.549988 383.705688,236.968384 416.179352,269.375854 
	C457.427795,223.885864 520.314209,222.048080 562.261230,249.215775 
z"/>
<path fill="#54706F" opacity="1.000000" stroke="none" 
	d="
M469.027893,843.028442 
	C467.755707,841.123962 466.437592,839.248352 465.218323,837.310547 
	C449.009460,811.549866 460.056030,764.112183 498.368652,756.539673 
	C514.502197,753.350830 529.979065,755.291016 541.921631,768.428284 
	C547.915833,775.022095 551.053284,783.005005 552.004639,791.845581 
	C552.161743,793.305908 552.219177,794.776917 553.152161,796.476501 
	C554.397705,793.264648 555.496277,789.986328 556.912903,786.851807 
	C565.242310,768.421387 579.769897,758.448120 599.618469,755.962952 
	C613.234253,754.258118 625.772461,756.989746 636.257751,766.226807 
	C641.679810,771.003357 645.563904,776.943726 646.637512,784.504028 
	C643.484741,785.009827 640.561584,785.739441 637.618164,785.833618 
	C636.279114,785.876465 634.116882,785.006348 633.659912,783.965515 
	C629.093567,773.566895 622.039062,766.742676 610.114929,765.908325 
	C595.067505,764.855530 582.431946,769.254028 573.689941,782.044067 
	C564.726501,795.158203 562.469482,809.734131 566.568848,824.923950 
	C570.989319,841.303955 584.954102,847.196350 600.532776,844.494446 
	C617.327332,841.581726 626.660706,831.148499 629.551453,813.048706 
	C623.556702,813.048706 617.671814,813.048706 611.786865,813.048706 
	C606.009216,813.048706 600.231567,813.048706 593.834717,813.048706 
	C594.556396,810.043274 594.897827,807.749146 595.705994,805.633240 
	C596.094604,804.615845 597.356628,803.217957 598.235840,803.208801 
	C612.680481,803.058167 627.127014,803.101746 642.450134,803.101746 
	C641.426575,808.393433 640.674377,812.912231 639.664429,817.372681 
	C637.538696,826.761780 635.278442,836.120422 633.072388,845.491272 
	C631.074707,853.976990 630.786499,854.149414 621.006836,852.315308 
	C621.513184,849.490662 622.022034,846.651794 622.575500,843.564087 
	C606.785828,856.083984 589.771240,858.717529 571.919739,849.853699 
	C556.708557,842.300842 552.383057,828.166077 551.688660,810.920410 
	C546.743591,830.242188 537.018066,844.238464 519.027344,851.115540 
	C501.087097,857.973450 484.486816,855.832397 469.308136,843.103882 
	C469.001587,843.000000 469.027893,843.028442 469.027893,843.028442 
M481.995789,777.561401 
	C473.448914,788.617432 470.489197,801.304321 471.002045,815.027039 
	C471.465118,827.417175 480.443115,840.409973 490.927460,843.768982 
	C503.755585,847.878784 520.151611,842.920349 528.075073,832.969604 
	C537.143311,821.581177 540.625854,808.595215 539.944885,794.316284 
	C539.207336,778.850159 528.062622,766.210144 514.268494,765.043518 
	C501.777649,763.987000 490.842865,767.120850 481.995789,777.561401 
z"/>
<path fill="#54706F" opacity="1.000000" stroke="none" 
	d="
M468.988098,842.986206 
	C466.625793,852.993286 466.625793,852.993225 456.498016,852.993225 
	C443.009277,852.993225 429.520538,852.993286 416.031799,852.993225 
	C414.234497,852.993225 412.437195,852.993225 409.803619,852.993225 
	C410.790009,848.237183 411.573120,844.099365 412.511230,839.996887 
	C418.389984,814.287781 424.314514,788.589233 430.197174,762.881042 
	C431.637512,756.586426 433.850281,755.644043 443.274811,757.932007 
	C436.814545,785.940918 430.350616,813.965759 423.662170,842.963989 
	C438.952515,842.963989 453.519867,842.963989 468.557556,842.996216 
	C469.027893,843.028442 469.001587,843.000000 468.988098,842.986206 
z"/>
<path fill="#536F6E" opacity="1.000000" stroke="none" 
	d="
M378.856232,849.029724 
	C375.911591,849.187683 371.720581,850.149231 371.004547,848.981018 
	C369.470734,846.478516 368.838745,842.700623 369.415619,839.754028 
	C371.742065,827.871704 374.668365,816.106873 377.375732,804.299194 
	C377.412720,804.137817 377.497620,803.987549 377.536407,803.826355 
	C379.651215,795.036316 379.545685,794.831665 370.069244,791.716064 
	C377.659576,790.135010 383.915985,788.831848 391.214294,787.311646 
	C386.843933,806.509338 382.764618,824.428528 378.685333,842.347656 
	C379.330566,842.761475 379.975800,843.175293 380.621033,843.589172 
	C383.779419,840.820312 386.937805,838.051514 390.096222,835.282715 
	C388.463348,841.475708 383.525482,844.930298 378.856232,849.029724 
z"/>
<path fill="#536F6E" opacity="1.000000" stroke="none" 
	d="
M394.535400,762.320740 
	C398.213348,767.657288 396.966553,773.456970 392.124268,773.779785 
	C389.745911,773.938354 386.205383,772.732788 385.069275,770.948486 
	C383.927338,769.155029 384.294800,765.402100 385.472931,763.354980 
	C387.425507,759.962219 390.964691,760.393311 394.535400,762.320740 
z"/>
<path fill="#FDFCFC" opacity="1.000000" stroke="none" 
	d="
M561.947266,249.035950 
	C520.314209,222.048080 457.427795,223.885864 416.179352,269.375854 
	C383.705688,236.968384 351.221069,204.549988 318.725006,172.120178 
	C414.848938,67.387222 585.468689,65.756653 683.692627,172.083435 
	C651.198059,204.566818 618.710022,237.043686 586.817932,268.924774 
	C578.799744,262.489441 570.530518,255.852615 561.947266,249.035950 
M506.498352,177.800919 
	C506.498352,150.563721 506.498352,123.326515 506.498352,96.147888 
	C502.584930,96.147888 499.486938,96.147888 495.809631,96.147888 
	C495.809631,123.790215 495.809631,151.240463 494.987885,178.897003 
	C494.722137,179.448441 494.226837,179.998917 494.224518,180.551437 
	C494.175293,192.252213 494.140289,203.953583 494.248535,215.653488 
	C494.258087,216.684952 495.274292,217.707108 495.963867,219.677719 
	C495.963867,222.746506 495.963867,225.815292 495.963867,228.774139 
	C499.804626,228.774139 502.912201,228.774139 506.508545,228.774139 
	C506.508545,225.285004 506.508545,222.010696 507.221588,218.572693 
	C507.481110,218.172974 507.966003,217.774109 507.967529,217.373428 
	C508.013397,205.166321 508.035553,192.958878 507.954773,180.752182 
	C507.950226,180.063766 507.038605,179.381332 506.498352,177.800919 
M534.958923,201.483124 
	C536.013367,195.323318 537.067810,189.163513 538.169250,182.729187 
	C533.537048,181.892792 529.374329,181.141190 524.857910,180.325699 
	C522.524109,193.559860 520.263367,206.380127 517.948181,219.509094 
	C522.570129,220.256180 526.752930,220.932281 531.265869,221.661743 
	C532.499573,214.991287 533.669861,208.663742 534.958923,201.483124 
M544.740112,214.149414 
	C543.539429,217.375183 542.338745,220.600937 540.996521,224.207047 
	C545.336243,225.832138 549.417664,227.360474 553.756836,228.985367 
	C558.334290,216.418747 562.787048,204.194366 567.317566,191.756454 
	C562.842041,190.094788 558.853394,188.613861 554.583740,187.028641 
	C551.306946,196.013290 548.136292,204.707016 544.740112,214.149414 
M434.716492,224.776230 
	C429.745819,216.183105 424.775146,207.589996 419.676178,198.775085 
	C415.669891,201.165695 411.911469,203.408401 407.950226,205.772125 
	C414.715149,217.422516 421.241608,228.662216 427.841492,240.028336 
	C432.026978,237.578461 435.668243,235.447144 439.487488,233.211639 
	C437.822571,230.296585 436.433777,227.864944 434.716492,224.776230 
M410.092834,234.398499 
	C404.814758,228.090759 399.536652,221.783005 394.078033,215.259506 
	C390.383087,218.368164 387.136230,221.099823 383.680481,224.007248 
	C392.313873,234.315445 400.684631,244.310074 409.238007,254.522766 
	C412.866821,251.412994 416.174255,248.578644 419.549652,245.686066 
	C416.299805,241.794937 413.432312,238.361618 410.092834,234.398499 
M473.330109,221.337830 
	C476.889526,220.745407 480.448975,220.153000 484.504486,219.478027 
	C482.219269,206.315964 479.992859,193.492645 477.704895,180.314758 
	C473.210297,181.130814 469.050873,181.886017 464.316162,182.745667 
	C466.609955,195.635468 468.824860,208.146530 471.116119,220.643585 
	C471.184235,221.014893 472.054840,221.239059 473.330109,221.337830 
M589.628723,214.139633 
	C591.163574,211.425507 592.698364,208.711380 594.384094,205.730453 
	C590.343750,203.318039 586.588989,201.076126 582.682190,198.743439 
	C575.910706,210.531891 569.421387,221.828979 562.843323,233.280655 
	C567.005188,235.637451 570.708923,237.734848 574.623535,239.951630 
	C579.577515,231.385483 584.390869,223.062515 589.628723,214.139633 
M435.950928,194.151077 
	C440.129639,205.636642 444.308319,217.122192 448.617615,228.966660 
	C452.917084,227.366104 456.998322,225.846786 461.386597,224.213181 
	C456.754578,211.531876 452.292969,199.317123 447.796753,187.007614 
	C443.993958,188.425583 440.558044,189.602646 437.229767,191.030579 
	C436.514130,191.337616 436.187408,192.551147 435.950928,194.151077 
M609.789612,216.388458 
	C608.640381,216.794220 607.088806,216.856186 606.403503,217.658310 
	C598.541809,226.860779 590.811707,236.175735 582.826050,245.724472 
	C586.288452,248.647705 589.662842,251.496674 593.219055,254.499069 
	C601.848755,244.163818 610.189758,234.174332 618.661011,224.028763 
	C615.590393,221.407562 612.955383,219.158188 609.789612,216.388458 
M555.965515,117.394005 
	C552.748352,129.392761 549.531250,141.391510 546.227417,153.713623 
	C548.892822,154.410126 551.201599,155.013428 553.697266,155.665558 
	C558.373230,138.234650 562.917358,121.295197 567.531189,104.096123 
	C564.845032,103.330521 562.674805,102.711952 560.188477,102.003311 
	C558.780457,107.039528 557.445801,111.813141 555.965515,117.394005 
M440.896851,126.715599 
	C443.498749,136.455856 446.100647,146.196106 448.779938,156.226044 
	C451.438477,155.511826 453.626831,154.923935 456.250549,154.219086 
	C451.595795,136.903671 447.015045,119.863617 442.355225,102.529343 
	C439.562775,103.286827 437.372131,103.881065 434.887207,104.555122 
	C436.878845,111.860222 438.795013,118.888596 440.896851,126.715599 
M395.020966,145.451309 
	C391.273010,139.008377 387.525055,132.565460 383.715240,126.016212 
	C381.374359,127.344223 379.291687,128.525772 377.045624,129.799988 
	C386.193451,145.614441 395.036194,160.901489 403.919678,176.258942 
	C406.411560,174.739243 408.342590,173.561600 410.553467,172.213287 
	C405.350708,163.261230 400.362549,154.678421 395.020966,145.451309 
M614.368896,132.810486 
	C606.975037,145.664322 599.581177,158.518158 592.108032,171.509903 
	C594.601624,172.890244 596.578125,173.984299 598.808960,175.219162 
	C607.820740,159.668030 616.662842,144.409714 625.592896,128.999664 
	C623.091858,127.501953 621.168884,126.350395 618.975769,125.037064 
	C617.439453,127.669212 616.116577,129.935654 614.368896,132.810486 
M660.346375,182.846298 
	C665.289673,177.988876 670.232910,173.131470 674.294495,169.140457 
	C672.618896,166.594666 671.275635,164.553696 670.515137,163.398270 
	C657.634155,176.169678 645.085571,188.611465 632.451111,201.138443 
	C633.856079,202.452347 635.528320,204.016159 637.817627,206.157120 
	C645.320129,198.388199 652.583252,190.867188 660.346375,182.846298 
M328.272095,168.759995 
	C329.771301,170.604294 331.141113,172.574249 332.790680,174.272537 
	C343.513794,185.312607 354.297760,196.293610 365.438354,207.678772 
	C367.764435,205.255478 369.360626,203.592575 370.690002,202.207657 
	C357.895233,189.468842 345.349792,176.978287 332.216034,163.901962 
	C331.209290,165.135910 329.956604,166.671280 328.272095,168.759995 
z"/>
<path fill="#1E3D3D" opacity="1.000000" stroke="none" 
	d="
M482.236206,777.297119 
	C490.842865,767.120850 501.777649,763.987000 514.268494,765.043518 
	C528.062622,766.210144 539.207336,778.850159 539.944885,794.316284 
	C540.625854,808.595215 537.143311,821.581177 528.075073,832.969604 
	C520.151611,842.920349 503.755585,847.878784 490.927460,843.768982 
	C480.443115,840.409973 471.465118,827.417175 471.002045,815.027039 
	C470.489197,801.304321 473.448914,788.617432 482.236206,777.297119 
M477.874969,816.148499 
	C480.790070,839.282654 502.686127,843.784485 517.607971,833.419678 
	C529.670288,825.041138 536.232971,805.131287 532.309753,789.023376 
	C530.596191,781.988037 526.923462,776.609863 520.238770,773.509460 
	C509.021484,768.306946 494.032043,772.278564 486.681030,782.296265 
	C479.454437,792.144470 476.932953,803.216370 477.874969,816.148499 
z"/>
<path fill="#D40000" opacity="1.000000" stroke="none" 
	d="
M506.508545,218.736389 
	C506.508545,222.010696 506.508545,225.285004 506.508545,228.774139 
	C502.912201,228.774139 499.804626,228.774139 495.963867,228.774139 
	C495.963867,225.815292 495.963867,222.746506 495.963562,218.764221 
	C495.912018,204.797379 495.860809,191.744034 495.809631,178.690704 
	C495.809631,151.240463 495.809631,123.790215 495.809631,96.147888 
	C499.486938,96.147888 502.584930,96.147888 506.498352,96.147888 
	C506.498352,123.326515 506.498352,150.563721 506.367676,178.709702 
	C506.327545,192.657791 506.418030,205.697083 506.508545,218.736389 
z"/>
<path fill="#070707" opacity="1.000000" stroke="none" 
	d="
M534.899536,201.909653 
	C533.669861,208.663742 532.499573,214.991287 531.265869,221.661743 
	C526.752930,220.932281 522.570129,220.256180 517.948181,219.509094 
	C520.263367,206.380127 522.524109,193.559860 524.857910,180.325699 
	C529.374329,181.141190 533.537048,181.892792 538.169250,182.729187 
	C537.067810,189.163513 536.013367,195.323318 534.899536,201.909653 
z"/>
<path fill="#070707" opacity="1.000000" stroke="none" 
	d="
M544.852844,213.775085 
	C548.136292,204.707016 551.306946,196.013290 554.583740,187.028641 
	C558.853394,188.613861 562.842041,190.094788 567.317566,191.756454 
	C562.787048,204.194366 558.334290,216.418747 553.756836,228.985367 
	C549.417664,227.360474 545.336243,225.832138 540.996521,224.207047 
	C542.338745,220.600937 543.539429,217.375183 544.852844,213.775085 
z"/>
<path fill="#060606" opacity="1.000000" stroke="none" 
	d="
M434.880737,225.104767 
	C436.433777,227.864944 437.822571,230.296585 439.487488,233.211639 
	C435.668243,235.447144 432.026978,237.578461 427.841492,240.028336 
	C421.241608,228.662216 414.715149,217.422516 407.950226,205.772125 
	C411.911469,203.408401 415.669891,201.165695 419.676178,198.775085 
	C424.775146,207.589996 429.745819,216.183105 434.880737,225.104767 
z"/>
<path fill="#060606" opacity="1.000000" stroke="none" 
	d="
M410.328827,234.663391 
	C413.432312,238.361618 416.299805,241.794937 419.549652,245.686066 
	C416.174255,248.578644 412.866821,251.412994 409.238007,254.522766 
	C400.684631,244.310074 392.313873,234.315445 383.680481,224.007248 
	C387.136230,221.099823 390.383087,218.368164 394.078033,215.259506 
	C399.536652,221.783005 404.814758,228.090759 410.328827,234.663391 
z"/>
<path fill="#060606" opacity="1.000000" stroke="none" 
	d="
M472.940674,221.434845 
	C472.054840,221.239059 471.184235,221.014893 471.116119,220.643585 
	C468.824860,208.146530 466.609955,195.635468 464.316162,182.745667 
	C469.050873,181.886017 473.210297,181.130814 477.704895,180.314758 
	C479.992859,193.492645 482.219269,206.315964 484.504486,219.478027 
	C480.448975,220.153000 476.889526,220.745407 472.940674,221.434845 
z"/>
<path fill="#060606" opacity="1.000000" stroke="none" 
	d="
M589.416504,214.439606 
	C584.390869,223.062515 579.577515,231.385483 574.623535,239.951630 
	C570.708923,237.734848 567.005188,235.637451 562.843323,233.280655 
	C569.421387,221.828979 575.910706,210.531891 582.682190,198.743439 
	C586.588989,201.076126 590.343750,203.318039 594.384094,205.730453 
	C592.698364,208.711380 591.163574,211.425507 589.416504,214.439606 
z"/>
<path fill="#060606" opacity="1.000000" stroke="none" 
	d="
M435.816223,193.749100 
	C436.187408,192.551147 436.514130,191.337616 437.229767,191.030579 
	C440.558044,189.602646 443.993958,188.425583 447.796753,187.007614 
	C452.292969,199.317123 456.754578,211.531876 461.386597,224.213181 
	C456.998322,225.846786 452.917084,227.366104 448.617615,228.966660 
	C444.308319,217.122192 440.129639,205.636642 435.816223,193.749100 
z"/>
<path fill="#060606" opacity="1.000000" stroke="none" 
	d="
M610.054993,216.648651 
	C612.955383,219.158188 615.590393,221.407562 618.661011,224.028763 
	C610.189758,234.174332 601.848755,244.163818 593.219055,254.499069 
	C589.662842,251.496674 586.288452,248.647705 582.826050,245.724472 
	C590.811707,236.175735 598.541809,226.860779 606.403503,217.658310 
	C607.088806,216.856186 608.640381,216.794220 610.054993,216.648651 
z"/>
<path fill="#0A0A0A" opacity="1.000000" stroke="none" 
	d="
M556.038330,116.990372 
	C557.445801,111.813141 558.780457,107.039528 560.188477,102.003311 
	C562.674805,102.711952 564.845032,103.330521 567.531189,104.096123 
	C562.917358,121.295197 558.373230,138.234650 553.697266,155.665558 
	C551.201599,155.013428 548.892822,154.410126 546.227417,153.713623 
	C549.531250,141.391510 552.748352,129.392761 556.038330,116.990372 
z"/>
<path fill="#0A0A0A" opacity="1.000000" stroke="none" 
	d="
M440.804016,126.316284 
	C438.795013,118.888596 436.878845,111.860222 434.887207,104.555122 
	C437.372131,103.881065 439.562775,103.286827 442.355225,102.529343 
	C447.015045,119.863617 451.595795,136.903671 456.250549,154.219086 
	C453.626831,154.923935 451.438477,155.511826 448.779938,156.226044 
	C446.100647,146.196106 443.498749,136.455856 440.804016,126.316284 
z"/>
<path fill="#090909" opacity="1.000000" stroke="none" 
	d="
M395.197693,145.773453 
	C400.362549,154.678421 405.350708,163.261230 410.553467,172.213287 
	C408.342590,173.561600 406.411560,174.739243 403.919678,176.258942 
	C395.036194,160.901489 386.193451,145.614441 377.045624,129.799988 
	C379.291687,128.525772 381.374359,127.344223 383.715240,126.016212 
	C387.525055,132.565460 391.273010,139.008377 395.197693,145.773453 
z"/>
<path fill="#090909" opacity="1.000000" stroke="none" 
	d="
M614.581299,132.506287 
	C616.116577,129.935654 617.439453,127.669212 618.975769,125.037064 
	C621.168884,126.350395 623.091858,127.501953 625.592896,128.999664 
	C616.662842,144.409714 607.820740,159.668030 598.808960,175.219162 
	C596.578125,173.984299 594.601624,172.890244 592.108032,171.509903 
	C599.581177,158.518158 606.975037,145.664322 614.581299,132.506287 
z"/>
<path fill="#0B0B0B" opacity="1.000000" stroke="none" 
	d="
M660.096313,183.096222 
	C652.583252,190.867188 645.320129,198.388199 637.817627,206.157120 
	C635.528320,204.016159 633.856079,202.452347 632.451111,201.138443 
	C645.085571,188.611465 657.634155,176.169678 670.515137,163.398270 
	C671.275635,164.553696 672.618896,166.594666 674.294495,169.140457 
	C670.232910,173.131470 665.289673,177.988876 660.096313,183.096222 
z"/>
<path fill="#090909" opacity="1.000000" stroke="none" 
	d="
M328.488007,168.483337 
	C329.956604,166.671280 331.209290,165.135910 332.216034,163.901962 
	C345.349792,176.978287 357.895233,189.468842 370.690002,202.207657 
	C369.360626,203.592575 367.764435,205.255478 365.438354,207.678772 
	C354.297760,196.293610 343.513794,185.312607 332.790680,174.272537 
	C331.141113,172.574249 329.771301,170.604294 328.488007,168.483337 
z"/>
<path fill="#380606" opacity="1.000000" stroke="none" 
	d="
M506.865051,218.654541 
	C506.418030,205.697083 506.327545,192.657791 506.393127,179.157303 
	C507.038605,179.381332 507.950226,180.063766 507.954773,180.752182 
	C508.035553,192.958878 508.013397,205.166321 507.967529,217.373428 
	C507.966003,217.774109 507.481110,218.172974 506.865051,218.654541 
z"/>
<path fill="#3A3535" opacity="1.000000" stroke="none" 
	d="
M495.398743,178.793854 
	C495.860809,191.744034 495.912018,204.797379 495.893066,218.292145 
	C495.274292,217.707108 494.258087,216.684952 494.248535,215.653488 
	C494.140289,203.953583 494.175293,192.252213 494.224518,180.551437 
	C494.226837,179.998917 494.722137,179.448441 495.398743,178.793854 
z"/>
<path fill="#38B5FE" opacity="1.000000" stroke="none" 
	d="
M477.849182,815.687622 
	C476.932953,803.216370 479.454437,792.144470 486.681030,782.296265 
	C494.032043,772.278564 509.021484,768.306946 520.238770,773.509460 
	C526.923462,776.609863 530.596191,781.988037 532.309753,789.023376 
	C536.232971,805.131287 529.670288,825.041138 517.607971,833.419678 
	C502.686127,843.784485 480.790070,839.282654 477.849182,815.687622 
z"/>
</svg>